<svg xmlns="http://www.w3.org/2000/svg" width="61" height="45" viewBox="0 0 61 45">
    <g fill="none" fill-rule="evenodd" stroke="#4F4F4F" stroke-width="2">
        <path d="M33.582 2.115l23.029 15.158a6 6 0 0 1 0 10.023L33.582 42.454a6 6 0 0 1-6.597 0L3.956 27.296a6 6 0 0 1 0-10.023L26.985 2.115a6 6 0 0 1 6.597 0z"/>
        <path d="M29.842 21.344c8.837 0 16-1.791 16-4 0-2.21-7.163-4-16-4-8.836 0-16 1.79-16 4 0 2.209 7.164 4 16 4zm-16 3c0 2.209 7.164 4 16 4 8.837 0 16-1.791 16-4m-32-7v7m32-7v7"/>
    </g>
</svg>
