<svg xmlns="http://www.w3.org/2000/svg" width="47" height="34" viewBox="0 0 47 34">
    <g fill="none" fill-rule="evenodd" transform="translate(-3 -3)">
        <g stroke="#4F4F4F" stroke-width="2" transform="rotate(-45 16.654 5.968)">
            <path d="M0 17.28V8.64C0 3.868 3.848 0 8.595 0c4.746 0 8.594 3.868 8.594 8.64v8.64"/>
            <ellipse cx="8.595" cy="17.28" rx="8.595" ry="2.16"/>
        </g>
        <g stroke="#4F4F4F" stroke-width="2" transform="rotate(45 18.44 49.196)">
            <path d="M0 17.28V8.64C0 3.868 3.848 0 8.595 0c4.746 0 8.594 3.868 8.594 8.64v8.64"/>
            <ellipse cx="8.595" cy="17.28" rx="8.595" ry="2.16"/>
        </g>
        <circle cx="22.5" cy="26.5" r="1.5" fill="#4F4F4F"/>
        <circle cx="29.5" cy="29.5" r="1.5" fill="#4F4F4F"/>
        <circle cx="22.5" cy="32.5" r="1.5" fill="#4F4F4F"/>
        <circle cx="27.5" cy="35.5" r="1.5" fill="#4F4F4F"/>
    </g>
</svg>
