<svg xmlns="http://www.w3.org/2000/svg" width="35" height="21" viewBox="0 0 35 21">
    <g fill="none" fill-rule="evenodd" transform="translate(1 1)">
        <path stroke="#4F4F4F" stroke-width="1.84" d="M5.5 13.168L1.61 9.311a5.423 5.423 0 0 1 0-7.713 5.532 5.532 0 0 1 7.78 0l3.888 3.857m-2.593 5.142c2.148-2.13 3.31-4.432 2.593-5.142-.716-.71-3.037.44-5.185 2.57-2.148 2.131-3.309 4.433-2.593 5.143.716.71 3.038-.44 5.185-2.57zm8.176-5.142l3.889-3.857a5.532 5.532 0 0 1 7.778 0 5.423 5.423 0 0 1 0 7.713l-3.89 3.857m-5.185-2.57c2.148 2.13 4.47 3.28 5.186 2.57.716-.71-.445-3.012-2.593-5.142-2.148-2.13-4.47-3.281-5.185-2.571-.716.71.445 3.012 2.592 5.142z"/>
        <ellipse cx="13.778" cy="13.437" fill="#4F4F4F" rx="1" ry="1"/>
        <ellipse cx="17.903" cy="15.255" fill="#4F4F4F" rx="1" ry="1"/>
        <ellipse cx="13.319" cy="17.528" fill="#4F4F4F" rx="1" ry="1"/>
        <ellipse cx="16.528" cy="18.437" fill="#4F4F4F" rx="1" ry="1"/>
    </g>
</svg>
