<svg xmlns="http://www.w3.org/2000/svg" width="44" height="70" viewBox="0 0 44 70">
    <g fill="none" fill-rule="evenodd" transform="rotate(30 17.116 56.414)">
        <path stroke="#4F4F4F" stroke-width="2" d="M3.167 20.745h12.666V44.73a6.333 6.333 0 1 1-12.667 0V20.745z"/>
        <path fill="#4F4F4F" d="M3.167 43.085h12.666v1.645a6.333 6.333 0 1 1-12.667 0v-1.645z"/>
        <rect width="19" height="3.191" y="18.351" fill="#4F4F4F" rx=".8"/>
        <rect width="12.667" height="3.191" x="3.167" fill="#4F4F4F" rx=".8"/>
        <rect width="2.75" height="17.149" x="8.125" y="1.798" stroke="#4F4F4F" stroke-width="2" rx=".8"/>
        <path fill="#4F4F4F" d="M8.742 46.277h1.516a3.2 3.2 0 0 1 3.2 3.2v7.966a1.6 1.6 0 0 1-1.6 1.6H7.142a1.6 1.6 0 0 1-1.6-1.6v-7.966a3.2 3.2 0 0 1 3.2-3.2z"/>
        <path stroke="#4F4F4F" stroke-width="2" d="M8.125 55.255v10.576c0 2.849.387 5.685 1.15 8.43a.233.233 0 0 0 .45 0 31.451 31.451 0 0 0 1.15-8.43V55.255h-2.75z"/>
    </g>
</svg>
